<?xml version="1.0" encoding="utf-8"?>
<!-- Generator: Adobe Illustrator 16.0.0, SVG Export Plug-In . SVG Version: 6.00 Build 0)  -->
<svg version="1.2" baseProfile="tiny" id="Layer_1" xmlns="http://www.w3.org/2000/svg" xmlns:xlink="http://www.w3.org/1999/xlink"
	 x="0px" y="0px" width="10000px" height="10000px" viewBox="0 0 10000 10000" xml:space="preserve">
<path fill-rule="evenodd" fill="#1D7EAB" d="M3788.732,10000c28.772-1174.736,346.923-2335.396,88.264-3525.227
	c-67.449,32.525-81.332,91.189-108.091,136.268c-399.173,673.327-788.269,1352.906-1292.404,1957.258
	c-148.455,177.867-329.006,326.988-459.458,520.74c-29.182,43.396-80.289,84.873-129.223,47.529
	c-48.318-36.844,5.637-82.643,23.86-120.074c359.401-735.541,701.704-1477.68,910.856-2273.51
	c209.242-795.809,276.563-1599.24,151.37-2416.809c-18.34-119.578-57.177-113.027-146.559-81.219
	c-587.47,209.035-1142.432,494.372-1719.223,727.979c-53.54,21.725-105.381,67.742-186.516,33.81
	C2726.205,3775.548,3940.604,2136.315,4453.703,0c124.387,506.446,76.571,1000.509-47.713,1491.265
	c-86.06,339.678-207.622,667.496-340.683,991.067c-26.681,64.917-36.941,121.595-6.443,190.227
	c323.784,728.275,469.518,1500.351,535.944,2287.581c101.667,1204.15,15.101,2396.689-270.234,3572.533
	c-114.231,471.035-267.424,928.887-482.195,1364.672C3825.367,9931.963,3806.535,9965.773,3788.732,10000z"/>
<path fill-rule="evenodd" fill="#A1CD3A" d="M8187.652,9130.396c-158.182,18.939-218.371-91.553-291.563-169.066
	c-544.197-577.104-971.529-1237.143-1355.404-1927.268c-108.689-195.254-211.141-394.133-335.746-627.525
	c-309.38,1215.708-32.629,2374.141,92.301,3539.615c-177.936-254.109-293.182-536.865-393.92-824.996
	c-280.139-801.826-417.002-1630.866-471.769-2476.502c-64.086-987.25-7.638-1964.111,221.849-2928.299
	c77.52-325.483,177.461-644.438,320.034-947.484c38.953-82.523,35.945-151.881,7.356-233.596
	c-176.226-504.543-360.784-1007.171-433.134-1540.699c-42.208-310.794-62.732-622.282-7.37-937.516
	c74.256,26.776,68.827,96.415,85.515,151.872c420.932,1396.682,1085.715,2652.748,2129.409,3689.902
	c366.238,364.125,765.909,687.325,1196.667,972.333c44.18,29.287,105.693,43.486,126.514,111.326
	c-100.828,14.08-183.877-33.297-265.707-68.129c-482.098-205.446-958.852-423.83-1444.454-621.002
	c-285.844-116.125-237.432-144.207-291.891,162.451c-193.24,1089.189,24.678,2126.559,413.439,3139.856
	C7688.66,8114.494,7931.33,8613.914,8187.652,9130.396z"/>
<path fill-rule="evenodd" fill="#1D7EAB" d="M2779.548,2735.571c-312.896-5.843-727.676-331.95-804.768-632.473
	c-44.38-173.508-1.111-296.805,137.291-391.2c212.445-144.83,519.329-121.078,765.795,59.271
	c234.925,171.912,342.309,441.631,273.068,686.008C3096.18,2650.207,2977.215,2739.4,2779.548,2735.571z"/>
<path fill-rule="evenodd" fill="#A1CD3A" d="M8034.695,2016.548c-1.416,429.448-446.059,788.047-854.5,689.021
	c-200.699-48.617-303.143-191.222-283.625-395.541c30.703-322.27,309.607-647.557,626.43-704.413
	C7788.298,1557.987,8059.435,1647.375,8034.695,2016.548z"/>
</svg>
