<?xml version="1.0" encoding="utf-8"?>
<!-- Generator: Adobe Illustrator 16.0.0, SVG Export Plug-In . SVG Version: 6.00 Build 0)  -->
<svg version="1.2" baseProfile="tiny" id="Layer_1" xmlns="http://www.w3.org/2000/svg" xmlns:xlink="http://www.w3.org/1999/xlink"
	 x="0px" y="0px" width="20px" height="20px" viewBox="0 0 20 20" xml:space="preserve">
<path fill="#1C7FAB" d="M7.624,19.809c0.057-2.305,0.681-4.582,0.173-6.916c-0.132,0.064-0.16,0.18-0.212,0.268
	C6.802,14.48,6.039,15.814,5.05,17c-0.291,0.348-0.646,0.641-0.901,1.02c-0.058,0.086-0.157,0.168-0.253,0.094
	c-0.095-0.07,0.011-0.162,0.047-0.234c0.705-1.443,1.376-2.898,1.787-4.461c0.41-1.561,0.542-3.137,0.297-4.74
	C5.99,8.443,5.914,8.456,5.738,8.519c-1.152,0.409-2.241,0.97-3.372,1.428C2.261,9.988,2.159,10.079,2,10.013
	c3.54-2.415,5.922-5.631,6.929-9.821c0.244,0.993,0.15,1.963-0.094,2.925c-0.169,0.667-0.407,1.31-0.668,1.944
	C8.114,5.188,8.094,5.3,8.154,5.434c0.635,1.429,0.921,2.943,1.051,4.487c0.2,2.362,0.03,4.702-0.53,7.009
	c-0.224,0.924-0.525,1.822-0.946,2.676C7.696,19.674,7.659,19.74,7.624,19.809z"/>
<path fill="#1C7FAB" d="M5.645,5.558c-0.614-0.012-1.427-0.651-1.579-1.24C3.979,3.977,4.064,3.734,4.335,3.55
	c0.417-0.284,1.019-0.238,1.502,0.116c0.461,0.337,0.672,0.866,0.536,1.346C6.266,5.39,6.032,5.565,5.645,5.558z"/>
<path fill="#A1CC3A" d="M16.254,18.102c-0.312,0.037-0.429-0.18-0.572-0.332c-1.067-1.131-1.906-2.426-2.66-3.779
	c-0.212-0.383-0.414-0.773-0.657-1.23c-0.608,2.385-0.063,4.656,0.181,6.941c-0.35-0.498-0.574-1.053-0.773-1.617
	c-0.549-1.572-0.816-3.199-0.924-4.857c-0.127-1.938-0.016-3.854,0.434-5.745c0.153-0.639,0.349-1.264,0.629-1.858
	c0.076-0.162,0.07-0.298,0.014-0.458c-0.346-0.99-0.708-1.976-0.849-3.022c-0.083-0.609-0.124-1.221-0.016-1.839
	c0.147,0.053,0.136,0.189,0.169,0.298c0.824,2.739,2.129,5.203,4.176,7.237c0.719,0.715,1.502,1.349,2.348,1.907
	C17.84,9.804,17.959,9.832,18,9.965c-0.198,0.027-0.361-0.065-0.521-0.134C16.533,9.428,15.599,9,14.646,8.613
	c-0.562-0.228-0.466-0.283-0.571,0.318c-0.381,2.136,0.048,4.172,0.811,6.16C15.273,16.109,15.75,17.09,16.254,18.102z"/>
<path fill="#A1CC3A" d="M15.953,4.147c-0.003,0.842-0.875,1.546-1.676,1.352c-0.395-0.096-0.596-0.375-0.557-0.776
	c0.059-0.632,0.607-1.271,1.229-1.382C15.469,3.248,16.002,3.423,15.953,4.147z"/>
</svg>
